<svg width="55" height="55" viewBox="0 0 55 55" fill="none" xmlns="http://www.w3.org/2000/svg">
<path fill-rule="evenodd" clip-rule="evenodd" d="M27.5 5.15625C15.3655 5.15625 5.15625 14.1191 5.15625 25.6254C5.15625 32.0934 8.42229 37.7699 13.404 41.4835V48.1548C13.404 48.7492 13.7111 49.3015 14.2161 49.615C14.7212 49.9286 15.3523 49.9589 15.8851 49.6952L23.7721 45.7916C24.9867 45.9869 26.1946 46.0946 27.5 46.0946C39.6345 46.0946 49.8438 37.1318 49.8438 25.6254C49.8438 14.1191 39.6345 5.15625 27.5 5.15625ZM27.5 8.59375C16.9378 8.59375 8.59375 16.328 8.59375 25.6254C8.59375 31.1356 11.5061 36.0461 16.0924 39.1801C16.5611 39.5004 16.8415 40.0315 16.8415 40.5992V45.3864L22.7272 42.4733C22.9642 42.356 23.2251 42.295 23.4896 42.295H23.5702C23.6722 42.295 23.774 42.3041 23.8745 42.3222C25.0857 42.54 26.2411 42.6571 27.5 42.6571C38.0622 42.6571 46.4062 34.9228 46.4062 25.6254C46.4062 16.328 38.0622 8.59375 27.5 8.59375Z" fill="#5C5C5C"/>
</svg>
