<svg width="55" height="55" viewBox="0 0 55 55" fill="none" xmlns="http://www.w3.org/2000/svg">
<path fill-rule="evenodd" clip-rule="evenodd" d="M13.7412 5.14746C8.99501 5.14746 5.14746 8.99501 5.14746 13.7412V18.3293V41.2584C5.14746 46.0046 8.99501 49.8521 13.7412 49.8521H41.2584C46.0046 49.8521 49.8521 46.0046 49.8521 41.2584V18.3293V13.7412C49.8521 8.99501 46.0046 5.14746 41.2584 5.14746H13.7412ZM13.7412 8.58496C10.8935 8.58496 8.58496 10.8935 8.58496 13.7412V16.6106H46.4146V13.7412C46.4146 10.8935 44.1061 8.58496 41.2584 8.58496H13.7412ZM8.58496 41.2584C8.58496 44.1061 10.8935 46.4146 13.7412 46.4146H41.2584C44.1061 46.4146 46.4146 44.1061 46.4146 41.2584V20.0481H8.58496V41.2584Z" fill="#5C5C5C"/>
<path d="M31.5096 24.5201C30.4971 24.5201 29.6762 25.3409 29.6762 26.3535C29.6762 27.366 30.497 28.1869 31.5096 28.1869C32.5222 28.1869 33.343 27.366 33.343 26.3535C33.343 25.3409 32.5222 24.5201 31.5096 24.5201Z" fill="#5C5C5C"/>
<path d="M23.4854 24.5201C22.4729 24.5201 21.652 25.3409 21.652 26.3535C21.652 27.366 22.4729 28.1869 23.4854 28.1869C24.498 28.1869 25.3188 27.366 25.3188 26.3535C25.3188 25.3409 24.498 24.5201 23.4854 24.5201Z" fill="#5C5C5C"/>
<path d="M23.4854 31.398C22.4729 31.398 21.652 32.2188 21.652 33.2314C21.652 34.2439 22.4729 35.0647 23.4854 35.0647C24.498 35.0647 25.3188 34.2439 25.3188 33.2314C25.3188 32.2188 24.498 31.398 23.4854 31.398Z" fill="#5C5C5C"/>
<path d="M15.4612 31.398C14.4487 31.398 13.6279 32.2188 13.6279 33.2314C13.6279 34.2439 14.4487 35.0647 15.4612 35.0647C16.4738 35.0647 17.2946 34.2439 17.2946 33.2314C17.2946 32.2188 16.4738 31.398 15.4612 31.398Z" fill="#5C5C5C"/>
<path d="M15.4612 38.2758C14.4487 38.2758 13.6279 39.0967 13.6279 40.1092C13.6279 41.1218 14.4487 41.9426 15.4612 41.9426C16.4738 41.9426 17.2946 41.1218 17.2946 40.1092C17.2946 39.0967 16.4738 38.2758 15.4612 38.2758Z" fill="#5C5C5C"/>
<path d="M23.4854 38.2758C22.4729 38.2758 21.652 39.0967 21.652 40.1092C21.652 41.1218 22.4729 41.9426 23.4854 41.9426C24.498 41.9426 25.3188 41.1218 25.3188 40.1092C25.3188 39.0967 24.498 38.2758 23.4854 38.2758Z" fill="#5C5C5C"/>
<path d="M31.5096 38.2758C30.4971 38.2758 29.6762 39.0967 29.6762 40.1092C29.6762 41.1218 30.497 41.9426 31.5096 41.9426C32.5222 41.9426 33.343 41.1218 33.343 40.1092C33.343 39.0967 32.5222 38.2758 31.5096 38.2758Z" fill="#5C5C5C"/>
<path d="M39.5361 38.2758C38.5235 38.2758 37.7027 39.0967 37.7027 40.1092C37.7027 41.1218 38.5235 41.9426 39.5361 41.9426C40.5486 41.9426 41.3694 41.1218 41.3694 40.1092C41.3694 39.0967 40.5486 38.2758 39.5361 38.2758Z" fill="#5C5C5C"/>
<path d="M39.5361 31.398C38.5235 31.398 37.7027 32.2188 37.7027 33.2314C37.7027 34.2439 38.5235 35.0647 39.5361 35.0647C40.5486 35.0647 41.3694 34.2439 41.3694 33.2314C41.3694 32.2188 40.5486 31.398 39.5361 31.398Z" fill="#5C5C5C"/>
<path d="M39.5361 24.5201C38.5235 24.5201 37.7027 25.3409 37.7027 26.3535C37.7027 27.366 38.5235 28.1869 39.5361 28.1869C40.5486 28.1869 41.3694 27.366 41.3694 26.3535C41.3694 25.3409 40.5486 24.5201 39.5361 24.5201Z" fill="#5C5C5C"/>
<path d="M31.5096 31.398C30.4971 31.398 29.6762 32.2188 29.6762 33.2314C29.6762 34.2439 30.497 35.0647 31.5096 35.0647C32.5222 35.0647 33.343 34.2439 33.343 33.2314C33.343 32.2188 32.5222 31.398 31.5096 31.398Z" fill="#5C5C5C"/>
</svg>
