<svg width="55" height="55" viewBox="0 0 55 55" fill="none" xmlns="http://www.w3.org/2000/svg">
<path fill-rule="evenodd" clip-rule="evenodd" d="M28.6186 5.57001C27.9749 5.01833 27.0252 5.01833 26.3815 5.57001L5.75651 23.2479C5.03578 23.8657 4.95229 24.9507 5.57004 25.6714C6.18778 26.3922 7.27283 26.4757 7.99356 25.8579L8.10336 25.7638V48.125C8.10336 49.0742 8.87288 49.8438 9.82211 49.8438H45.178C46.1272 49.8438 46.8967 49.0742 46.8967 48.125V25.7638L47.0065 25.8579C47.7272 26.4757 48.8123 26.3922 49.43 25.6714C50.0478 24.9507 49.9643 23.8657 49.2436 23.2479L46.8967 21.2364V6.875C46.8967 5.92576 46.1272 5.15625 45.178 5.15625H36.339C35.3898 5.15625 34.6202 5.92576 34.6202 6.875V10.7141L28.6186 5.57001ZM11.5409 22.8175L27.5 9.13869L35.1992 15.7377L43.4592 22.8175V46.4063H35.1129V37.9752C35.1129 34.4937 32.2924 31.6731 28.8109 31.6731H26.1915C22.71 31.6731 19.8894 34.4937 19.8894 37.9752V46.4063H11.5409V22.8175ZM43.4592 18.2901L38.0577 13.6604V8.59375H43.4592V18.2901ZM26.1915 35.1106H28.8109C30.3939 35.1106 31.6754 36.3922 31.6754 37.9752V46.4063H23.3269V37.9752C23.3269 36.3922 24.6084 35.1106 26.1915 35.1106Z" fill="#5C5C5C"/>
</svg>
